<?xml version="1.0" encoding="UTF-8"?>
<svg xmlns="http://www.w3.org/2000/svg" xmlns:xlink="http://www.w3.org/1999/xlink" width="32px" height="32px" viewBox="0 0 32 32" version="1.1">
<g id="surface1">
<path style=" stroke:none;fill-rule:nonzero;fill:rgb(0%,84.705883%,100%);fill-opacity:1;" d="M 18.652344 15.980469 C 18.652344 14.5 17.453125 13.300781 15.972656 13.300781 C 14.496094 13.300781 13.296875 14.5 13.296875 15.980469 C 13.296875 17.457031 14.496094 18.65625 15.972656 18.65625 C 17.453125 18.65625 18.652344 17.457031 18.652344 15.980469 Z M 18.652344 15.980469 "/>
<path style=" stroke:none;fill-rule:nonzero;fill:rgb(0%,84.705883%,100%);fill-opacity:1;" d="M 15.972656 22.113281 C 12.214844 22.113281 8.929688 21.667969 6.46875 20.828125 C 4.875 20.28125 3.519531 19.558594 2.554688 18.730469 C 1.53125 17.855469 0.988281 16.902344 0.988281 15.980469 C 0.988281 14.207031 2.929688 12.476562 6.1875 11.34375 C 8.851562 10.414062 12.332031 9.898438 15.96875 9.898438 C 19.542969 9.898438 22.96875 10.398438 25.621094 11.316406 C 27.171875 11.851562 28.480469 12.542969 29.40625 13.3125 C 30.414062 14.15625 30.949219 15.078125 30.949219 15.980469 C 30.949219 17.820312 28.777344 19.679688 25.28125 20.835938 C 22.804688 21.660156 19.5 22.113281 15.972656 22.113281 Z M 15.972656 11.179688 C 12.523438 11.179688 9.109375 11.679688 6.613281 12.550781 C 3.617188 13.59375 2.273438 15.023438 2.273438 15.980469 C 2.273438 16.96875 3.71875 18.535156 6.886719 19.617188 C 9.210938 20.410156 12.355469 20.832031 15.972656 20.832031 C 19.367188 20.832031 22.527344 20.40625 24.878906 19.621094 C 28.171875 18.527344 29.675781 16.964844 29.675781 15.980469 C 29.675781 15.472656 29.289062 14.875 28.59375 14.292969 C 27.785156 13.621094 26.613281 13.007812 25.210938 12.523438 C 22.6875 11.660156 19.40625 11.179688 15.972656 11.179688 Z M 15.972656 11.179688 "/>
<path style=" stroke:none;fill-rule:nonzero;fill:rgb(0%,84.705883%,100%);fill-opacity:1;" d="M 9.898438 29.324219 C 9.355469 29.324219 8.875 29.207031 8.46875 28.96875 C 6.9375 28.085938 6.40625 25.535156 7.050781 22.148438 C 7.578125 19.371094 8.871094 16.105469 10.6875 12.953125 C 12.476562 9.863281 14.617188 7.140625 16.734375 5.300781 C 17.972656 4.222656 19.226562 3.433594 20.355469 3.019531 C 21.589844 2.566406 22.65625 2.566406 23.433594 3.011719 C 25.03125 3.929688 25.558594 6.746094 24.8125 10.351562 C 24.28125 12.910156 23.023438 16 21.265625 19.054688 C 19.386719 22.308594 17.359375 24.933594 15.402344 26.644531 C 14.132812 27.753906 12.828125 28.566406 11.632812 28.988281 C 11.007812 29.210938 10.421875 29.324219 9.898438 29.324219 Z M 11.238281 13.273438 L 11.792969 13.59375 C 10.070312 16.582031 8.792969 19.785156 8.304688 22.390625 C 7.710938 25.507812 8.28125 27.386719 9.105469 27.863281 C 9.308594 27.980469 9.574219 28.042969 9.898438 28.042969 C 10.960938 28.042969 12.628906 27.371094 14.558594 25.683594 C 16.410156 24.070312 18.347656 21.550781 20.15625 18.421875 C 21.851562 15.484375 23.054688 12.527344 23.558594 10.101562 C 24.257812 6.703125 23.652344 4.625 22.792969 4.128906 C 22.355469 3.878906 21.648438 3.910156 20.792969 4.222656 C 19.808594 4.585938 18.691406 5.296875 17.574219 6.273438 C 15.5625 8.019531 13.507812 10.625 11.792969 13.601562 Z M 11.238281 13.273438 "/>
<path style=" stroke:none;fill-rule:nonzero;fill:rgb(0%,84.705883%,100%);fill-opacity:1;" d="M 22.046875 29.339844 C 20.597656 29.339844 18.757812 28.464844 16.835938 26.8125 C 14.691406 24.964844 12.511719 22.21875 10.6875 19.066406 C 8.894531 15.972656 7.617188 12.757812 7.078125 10 C 6.761719 8.390625 6.703125 6.910156 6.90625 5.722656 C 7.128906 4.425781 7.660156 3.503906 8.441406 3.050781 C 10.03125 2.128906 12.734375 3.078125 15.488281 5.523438 C 17.441406 7.257812 19.488281 9.894531 21.253906 12.945312 C 23.136719 16.199219 24.398438 19.265625 24.902344 21.8125 C 25.226562 23.464844 25.28125 25.003906 25.050781 26.25 C 24.804688 27.578125 24.25 28.523438 23.449219 28.988281 C 23.050781 29.222656 22.574219 29.339844 22.046875 29.339844 Z M 11.796875 18.425781 C 13.523438 21.414062 15.667969 24.117188 17.675781 25.839844 C 20.078125 27.910156 21.988281 28.355469 22.816406 27.878906 C 23.675781 27.382812 24.304688 25.347656 23.652344 22.0625 C 23.171875 19.652344 21.960938 16.71875 20.148438 13.589844 C 18.449219 10.652344 16.492188 8.128906 14.640625 6.484375 C 12.046875 4.179688 9.945312 3.664062 9.089844 4.160156 C 8.652344 4.410156 8.324219 5.046875 8.171875 5.941406 C 7.996094 6.976562 8.046875 8.296875 8.335938 9.753906 C 8.847656 12.375 10.074219 15.449219 11.796875 18.425781 Z M 11.796875 18.425781 "/>
</g>
</svg>
